<svg id="Layer_1" data-name="Layer 1" xmlns="http://www.w3.org/2000/svg" viewBox="0 0 492.82 115.52"><defs><style>.cls-1{fill:#2d5428;}</style></defs><title>logo</title><path class="cls-1" d="M74.4,12.2c-.94,1.88-.62,7.63-.6,10.79,0,2.54,0,5.22.1,7.79A140.67,140.67,0,0,1,74.17,47c-.42,6.14.2,12.19.2,18.32,0,3.65-.23,7.3-.22,11,0,1.49.11,3,0,4.48,0,.58-.08,1.18-.11,1.78a4.42,4.42,0,0,0,.44,1.11c.15.28,1.1.5,1.4.63a1.43,1.43,0,0,1,.71.74,4.08,4.08,0,0,1,.07,2.67c-.41,1-1.79,1-2.69,1a.88.88,0,0,1-.4-.1c-.75,0-1.5,0-2.25,0a57.7,57.7,0,0,1-8.52-.08c-.61-.07-1.21-.25-1.82-.26s-1.26.16-1.9.15-1.2-.24-1.81-.23-1.49.15-2.24.15c-1,0-2-.23-1.93-1.44a7,7,0,0,1,.21-1.54s0-.09,0-.1c.21-.89.18-1.25,2-1.79l.08,0a1.88,1.88,0,0,0,.35-.34,1.28,1.28,0,0,0,.14-.21,2.09,2.09,0,0,0,.16-.4c-.08-.45-.11-7.92-.09-11.2,0-3.72.08-7.44.1-11.16,0-2.43,0-12.58-.09-20.65-.5.9-1,1.81-1.43,2.77-1.09,2.44-2.06,4.31-3.16,6.52a29.8,29.8,0,0,1-2.07,3.65,32.56,32.56,0,0,0-2.47,4.81c-.94,2-2.4,3.69-3.46,5.59-.64.63-2,1.31-2.5.47-1.07-2.1-2.73-3.83-3.75-6a25.45,25.45,0,0,0-2.63-4.12,30.69,30.69,0,0,1-2.07-3.66c-1.1-2.2-2.48-3.94-3.7-6.31-.46-.9-.83-1.54-1.16-2.17-.07,2.33-.15,4.92-.2,5.74-.43,6.19.2,12.3.19,18.48,0,3.68-.23,7.35-.22,11,0,1.51.11,3,0,4.52,0,.59-.07,1.19-.11,1.8a4.64,4.64,0,0,0,.44,1.12c.15.28,1.1.5,1.4.63a1.57,1.57,0,0,1,.72.74,4.23,4.23,0,0,1,.07,2.7c-.42,1-1.8,1-2.7,1a.77.77,0,0,1-.4-.1c-.75,0-1.5,0-2.24,0A57.82,57.82,0,0,1,16,88.52a16,16,0,0,0-1.82-.27c-.64,0-1.26.17-1.89.15s-1.2-.24-1.82-.23-1.49.15-2.23.16c-1,0-2-.25-1.94-1.46.06-.71.05-2,.85-2.35l.18,0c.38-.63,1.11-.9,1.56-1.45,1.23-1.5,1-3.39,1-5.11V70.4q0-7.55,0-15.1c0-10.83-.07-21.66,0-32.5,0,0,0-.08,0-.12q0-1.77.12-3.54A8,8,0,0,1,8,17.41,23.49,23.49,0,0,1,5.6,13.17,12.29,12.29,0,0,1,4.6,7c0-.28.16-.18.51-.07A122.15,122.15,0,0,0,23.36,7,3.85,3.85,0,0,1,26,8.49a7.14,7.14,0,0,1,1.78,2.9l.12.21c.84,1.41,2.23,4.43,3,5.92,1.11,2.16,2.1,4.4,3.19,6.57,1.43,2.85,3.22,5.29,4.51,8.22A48,48,0,0,0,42,37.74a49.42,49.42,0,0,0,3.39-5.43c1.29-2.93,3.08-5.37,4.51-8.22C51,21.92,52,19.68,53.06,17.52a37.47,37.47,0,0,1,2.34-4.1A7.4,7.4,0,0,0,56.05,12a5.73,5.73,0,0,0-.29-.63c-.15-.28-1.1-.5-1.4-.63a1.48,1.48,0,0,1-.72-.74,4.14,4.14,0,0,1-.07-2.67c.41-1,1.8-1,2.7-1a.81.81,0,0,1,.39.1c.75,0,1.5,0,2.25,0a57.67,57.67,0,0,1,8.52.08c.61.08,1.21.25,1.83.27s1.26-.17,1.89-.16,1.2.24,1.82.23,1.48-.15,2.23-.15c1,0,2,.24,1.94,1.44a6.88,6.88,0,0,1-.22,1.54s0,.09,0,.1c-.2.89-.18,1.25-2,1.79l-.09.05c-.12.11-.24.22-.35.34Z" transform="translate(-4.56 -5.84)"/><path class="cls-1" d="M133.39,81.15c0,1.59.6,3.88,0,5.55a2.92,2.92,0,0,1-.58,1c-1.13,1.27-3.19,1-4.7.93-2.8-.13-3.35-.37-6.15-.45-5.62-.15-6.72-.29-10.08-.33-4.45,0-8.88.57-13.33.72-4,.14-7.86-.27-11.81-.35-.61,0-1.2-.24-1.81-.23s-1.49.15-2.24.15c-1,0-2-.24-1.94-1.44A6.88,6.88,0,0,1,81,85.17a.25.25,0,0,0,0-.1c.2-.89.18-1.25,2-1.79,0,0,.05,0,.08-.06a2.2,2.2,0,0,0,.35-.33c.06-.07.09-.14.14-.21a3.7,3.7,0,0,0,.16-.4c-.09-.46,0-2.76,0-3.18a34.39,34.39,0,0,1,0-4.54c.27-2.74-.15-3,.14-5.49.34-3,0-5.87.06-8.86.11-6-.11-17.15,0-16.82,0-4.6-.33-9.17-.33-13.78,0-3.65.24-7.3.22-10.95,0-1.49-.1-3,0-4.48,0-.58.08-1.18.11-1.78a4.38,4.38,0,0,0-.43-1.11c-.16-.28-1.11-.51-1.4-.63a1.48,1.48,0,0,1-.72-.74,4.08,4.08,0,0,1-.07-2.67c.41-1,1.8-1,2.7-1a.84.84,0,0,1,.39.1c.75,0,1.5,0,2.25,0a57.68,57.68,0,0,1,8.52.08c.18,0,.35.06.52.09l1.64.16c2.17.2,4.49-.26,6.72-.08,2.64.21,5.27.58,7.93.55,3.36,0,4.46-.18,10.08-.33,2.79-.08,3.35-.32,6.14-.45,1.51-.07,3.58-.34,4.71.93a2.9,2.9,0,0,1,.57,1c.56,1.67-.08,4,0,5.55a40.59,40.59,0,0,1-.18,7.06c-.07.38-.15.72-.24,1,0,.08,0,.17,0,.26a2.39,2.39,0,0,1-1.25.62c-1.71.29-3.24-.68-4.78-1.23a18.75,18.75,0,0,0-2-.58c-4.64-1.11-6.9-.31-11.6-.6a85.25,85.25,0,0,0-10.84-.13.42.42,0,0,0-.2.05l-.89,0c0,.93,0,1.8,0,2.53,0,2.54,0,5.23.09,7.8.17,3.94.44,7.8.43,11.71l4.12-1.94c2.82-1.42,5.61-2.9,8.43-4.3.86-.48,3.16-1.54,4-2,3.12-1.53,3.94-.19,4,3.52,0,2.22.3,4.65-.24,6.82-.42,1.69-.7,2.21-3.91,3.79-5.66,2.78-11.11,6-16.57,9.07.09,2.59.2,5.18.2,7.79,0,3.17-.18,6.16-.22,9.33h.48a.59.59,0,0,0,.2.06,80.9,80.9,0,0,0,10.56-.1c4.7-.28,7.26.64,11.9-.47.69-.17,1.35-.36,2-.57,1.54-.56,3.06-4.78,4.77-4.49a2.42,2.42,0,0,1,1.26.62,2.28,2.28,0,0,0,0,.26q.14.48.24,1A88.62,88.62,0,0,1,133.39,81.15Z" transform="translate(-4.56 -5.84)"/><path class="cls-1" d="M207.29,19.14c.05,1.18.1,2.36.11,3.54a.53.53,0,0,1,0,.12c.06,10.83,0,21.67,0,32.5q0,7.55,0,15.1c0,2.5,0,5,0,7.5,0,1.73-.28,3.62.94,5.12.45.55,1.18.82,1.57,1.45l.18,0c.8.34.79,1.64.85,2.35.1,1.21-.94,1.46-1.94,1.46-.75,0-1.49-.15-2.23-.16s-1.2.22-1.82.23-1.25-.17-1.89-.15-1.22.19-1.83.26a59.07,59.07,0,0,1-8.52.09c-.74,0-1.5,0-2.25,0a.81.81,0,0,1-.39.1c-.9,0-2.28,0-2.7-1a4.23,4.23,0,0,1,.07-2.7,1.48,1.48,0,0,1,.72-.74c.3-.13,1.25-.36,1.4-.63A4.64,4.64,0,0,0,190,82.5c0-.61-.08-1.21-.11-1.8-.09-1.51,0-3,0-4.52,0-3.68-.22-7.36-.22-11,0-6.18.62-12.29.19-18.48-.09-1.28-.22-6.77-.31-9-.71,1.49-1.61,2.9-2.3,4.46-1.09,2.44-2.06,4.31-3.16,6.51A30,30,0,0,1,182,52.32a31.47,31.47,0,0,0-2.46,4.8c-.94,2-2.4,3.69-3.46,5.6-.64.63-2,1.31-2.5.47-1.07-2.1-2.73-3.83-3.75-6a25.53,25.53,0,0,0-2.63-4.13,29.8,29.8,0,0,1-2.07-3.65c-1.1-2.21-2.48-3.94-3.7-6.31-.46-.9-.83-1.55-1.16-2.17-.07,2.32-.15,4.91-.21,5.74-.42,6.19.2,12.29.2,18.48,0,3.67-.23,7.35-.22,11,0,1.5.11,3,0,4.52,0,.59-.08,1.19-.11,1.8a4.79,4.79,0,0,0,.43,1.11c.16.28,1.11.51,1.41.64a1.43,1.43,0,0,1,.71.74,4.17,4.17,0,0,1,.07,2.7c-.41,1-1.79,1-2.69,1a.88.88,0,0,1-.4-.1q-1.12,0-2.25,0a59.09,59.09,0,0,1-8.52-.09c-.61-.07-1.21-.25-1.82-.26s-1.26.17-1.9.15-1.2-.24-1.81-.23-1.49.15-2.24.15c-1,0-2-.24-1.93-1.45.06-.71,0-2,.85-2.35.06,0,.12,0,.17-.06.39-.62,1.12-.89,1.57-1.44,1.22-1.5.95-3.39.95-5.12q0-3.75,0-7.5c0-5,0-10.07,0-15.1,0-10.83-.07-21.67,0-32.5,0-.05,0-.08,0-.12,0-1.18.06-2.36.11-3.54a8.19,8.19,0,0,1-1.93-1.73,23.83,23.83,0,0,1-2.36-4.24,12.18,12.18,0,0,1-1-6.15c0-.28.16-.19.51-.07A122,122,0,0,0,156.1,7a3.93,3.93,0,0,1,2.63,1.47,7.06,7.06,0,0,1,1.77,2.91c.05.07.08.13.13.21.84,1.4,2.23,4.43,3,5.91,1.11,2.16,2.1,4.4,3.19,6.58,1.43,2.85,3.22,5.29,4.51,8.22a49.42,49.42,0,0,0,3.39,5.43,48,48,0,0,0,3.4-5.43c1.29-2.93,3.08-5.37,4.51-8.22,1.09-2.18,2.08-4.42,3.19-6.58a39,39,0,0,1,2.33-4.09A26.64,26.64,0,0,0,189.53,11a1,1,0,0,1,.1-.17,16.58,16.58,0,0,1,1.57-2.38A3.93,3.93,0,0,1,193.83,7,122.16,122.16,0,0,0,212.08,7c.34-.12.48-.21.5.07a12.08,12.08,0,0,1-1,6.15,23.83,23.83,0,0,1-2.36,4.24A8,8,0,0,1,207.29,19.14Z" transform="translate(-4.56 -5.84)"/><path class="cls-1" d="M268.85,81.15c-.05,1.59.6,3.88,0,5.55a2.81,2.81,0,0,1-.57,1c-1.13,1.27-3.2,1-4.71.94-2.79-.13-3.35-.38-6.15-.46-5.62-.15-6.71-.29-10.08-.33-4.45.06-8.88.57-13.33.72-4,.14-7.86-.27-11.8-.35-.62,0-1.2-.24-1.82-.23s-1.49.15-2.23.15c-1,0-2-.24-1.94-1.44a6.42,6.42,0,0,1,.22-1.54s0-.09,0-.1c.21-.89.18-1.25,2-1.79l.08,0a2.83,2.83,0,0,0,.35-.34c.06-.07.1-.14.15-.21s.11-.26.16-.4c-.09-.46,0-2.76,0-3.18a36.2,36.2,0,0,1,0-4.54c.27-2.74-.14-3,.14-5.49.34-3,0-5.87.06-8.86.11-6-.11-17.15,0-16.82,0-4.6-.34-9.17-.33-13.78,0-3.65.23-7.3.22-10.95,0-1.49-.11-3,0-4.47,0-.59.07-1.19.11-1.79a4.42,4.42,0,0,0-.44-1.11c-.15-.28-1.1-.5-1.4-.63a1.5,1.5,0,0,1-.72-.73,4.17,4.17,0,0,1-.07-2.68c.42-1,1.8-1,2.7-1a.71.71,0,0,1,.39.11c.76,0,1.51,0,2.25,0a57.82,57.82,0,0,1,8.53.08l.52.09,1.63.16c2.17.2,4.49-.26,6.72-.08,2.64.21,5.28.58,7.93.55,3.36,0,4.46-.17,10.08-.33,2.8-.07,3.35-.32,6.15-.45,1.51-.07,3.57-.33,4.7.93a2.92,2.92,0,0,1,.58,1c.56,1.68-.09,4,0,5.55a41.6,41.6,0,0,1-.19,7.06q-.11.57-.24,1c0,.09,0,.17,0,.26a2.46,2.46,0,0,1-1.26.62c-1.71.29-3.24-.68-4.78-1.23a18,18,0,0,0-1.95-.58c-4.64-1.11-6.9-.31-11.6-.6A87.1,87.1,0,0,0,238,20.31a.38.38,0,0,0-.19.05h-.53c0,5,.09,11-.06,15.4l.36,0,0,.09c2.33.07,7.62.18,9.35.11,2-.08,4-.12,6-.09.73,0,1.45,0,2.15.09.54.06.54,1.15.48,1.64a9.66,9.66,0,0,1-.53,2,38.33,38.33,0,0,1-1.25,3.75c-.85,1.83-1.91,4.92-4.21,5.8a8.16,8.16,0,0,1-3.27.2,24.91,24.91,0,0,1-4,0c-1.63,0-3.27-.1-4.9-.18.09,7.54.16,14.73.16,16,0,3.17-.19,6.16-.23,9.33h.49a.53.53,0,0,0,.19.06,82.66,82.66,0,0,0,10.56-.09c4.7-.29,7.26.63,11.9-.48q1.05-.25,1.95-.57c1.54-.56,3.07-4.78,4.78-4.49a2.39,2.39,0,0,1,1.25.62,2.46,2.46,0,0,1,0,.26q.13.48.24,1A88.62,88.62,0,0,1,268.85,81.15Z" transform="translate(-4.56 -5.84)"/><path class="cls-1" d="M303.89,55.93c-.05.51-.1,1-.12,1.39-.14,2.64-.1,4.17-2.22,4.72s-5.1,0-7.42-.09l-8.1-.14c-2.71-.05-5.41,0-8.11-.06-1,0-3,.37-3.88-.57-1.72-1.8-1.4-8-.75-10.23A4.45,4.45,0,0,1,274,49.5a1,1,0,0,1,.9-1c5.23-.47,9.7.43,14.93,0,2.78-.25,11-1.65,13.44.79,1.25,1.24,1.1,2,.87,4.56A5.6,5.6,0,0,1,303.89,55.93Z" transform="translate(-4.56 -5.84)"/><path class="cls-1" d="M370.34,49.73a30.91,30.91,0,0,1-.41,4.92c-.32,1.12-.56,2.26-.79,3.4a2.71,2.71,0,0,1-.09.51s0,0,0,0c-.07.33-.14.66-.2,1a6.2,6.2,0,0,1-.86,1.94c-.14.41-.28.82-.39,1.24A39.7,39.7,0,0,1,364.72,71a37.87,37.87,0,0,1-5.41,7.29,13.23,13.23,0,0,1-2,2,.6.6,0,0,1-.24.49c-1.36,1.06-2.49,2.81-3.95,3.7a30.49,30.49,0,0,1-4.06,1.71c-3.13,1.32-6.68,2.58-10.11,2.52-2.14,0-4.41.27-6.45-.52-1.84-.7-3.55-1.79-5.34-2.62a17.79,17.79,0,0,1-7.06-5.83,19,19,0,0,1-2.73-2.27,26.35,26.35,0,0,1-4.51-7.51c-.61-1.44-.84-3-1.53-4.4a24.56,24.56,0,0,1-1.57-4.08,32.8,32.8,0,0,1-1.38-6.71,22.22,22.22,0,0,1-.4-4,42.39,42.39,0,0,1-.09-7.3,34.21,34.21,0,0,1,1.43-8.4c.76-2.65,1.26-6.51,2.86-8.81,2.12-3.05,2.76-7,5.46-9.66,1.23-1.23,2.52-2.38,3.8-3.54a21.78,21.78,0,0,1,3-2.84,28.49,28.49,0,0,1,9.08-3c1.08-.22,2.15-.47,3.22-.64,2.05-1.26,6.23-.53,8.36.12a18.93,18.93,0,0,1,5,2.26c1.23.42,2.4,1.62,3.49,2.23,2.17,1.24,3.74,3,5.67,4.57,1.75,1.43,2.84,3.6,4.18,5.4a5.36,5.36,0,0,1,.6,1.08,15.82,15.82,0,0,1,1.71,3.58c.76,1.82,2,3.49,2.59,5.39a50.34,50.34,0,0,1,2.06,12.16A43.75,43.75,0,0,1,370.34,49.73ZM354.1,48.1a34.48,34.48,0,0,0-.66-5.22A15.75,15.75,0,0,1,350,44.42c-2.76.86-5.45,2.06-8.27,2.73-3.31.79-9.26,3.35-9.61-2.1-.11-1.63-2.07-8.45.66-9.32,1.31-.42,2.67-.51,3.95-1s2.73-1.42,4.16-1.87l1.9-.62c.83-.66,2.11-1,2.92-1.5a3.57,3.57,0,0,0,1.74-4.25,8.6,8.6,0,0,0-1.35-1.28c-1-.74-2.1-1.39-3.19-2.05a8.74,8.74,0,0,0-2.16-.5,21,21,0,0,1-2.11-.32,16.3,16.3,0,0,0-8.05,4.42,24.92,24.92,0,0,0-4.34,7.93,36.77,36.77,0,0,0-1.66,8.1,32.18,32.18,0,0,0-.35,8.54,35.46,35.46,0,0,0,2.56,9.13c1,2.36,2.38,5.59,4.24,7.38,2.19,2.1,5.24,5.24,8.65,4.26a.55.55,0,0,1,.36,0c3.35-1.07,6.59-3,8.28-6.18s4.09-6.37,5-10.07A31.65,31.65,0,0,0,354.1,48.1Z" transform="translate(-4.56 -5.84)"/><path class="cls-1" d="M471.21,102.05a19.92,19.92,0,0,1-1.67,4,1.14,1.14,0,0,1-.32.37,26.83,26.83,0,0,1-9.35,10.72,43.24,43.24,0,0,1-3.69,2.34,20.44,20.44,0,0,1-4.26,1.23,21.42,21.42,0,0,1-10.25.12c-3.08-.9-6.32-1.83-8.87-3.88a42.6,42.6,0,0,1-7.3-6.75c-5.69-7.38-14.74-29.74-15.88-32.22a60,60,0,0,0-2.52-5.78,27.43,27.43,0,0,1-1.27-2.84c-1.15-2.48-2.37-4.88-3.36-7.44a77.14,77.14,0,0,1-3.87-11.23,2.76,2.76,0,0,1-.35-.89l-1.49.52c0,4.81.32,9.59.31,14.41,0,3.68-.23,7.35-.22,11,0,1.5.11,3,0,4.51,0,.59-.07,1.2-.11,1.8a4.48,4.48,0,0,0,.44,1.12c.15.28,1.1.51,1.4.63a1.54,1.54,0,0,1,.72.75,4.23,4.23,0,0,1,.07,2.7c-.42,1-1.8,1-2.7,1a.88.88,0,0,1-.4-.1c-.75,0-1.5,0-2.25,0a57.7,57.7,0,0,1-8.52-.08c-.6-.07-1.21-.25-1.82-.27s-1.26.17-1.89.16-1.2-.24-1.82-.23-1.49.15-2.23.15c-1,0-2-.24-1.94-1.46.06-.71.05-2,.85-2.34l.18-.06c.39-.62,1.11-.89,1.56-1.45,1.23-1.49.95-3.38.95-5.11V69.94q0-7.55,0-15.1c0-10.83-.07-21.66,0-32.49,0,0,0-.07,0-.11q0-1.78.12-3.54A8.28,8.28,0,0,1,377.51,17a21,21,0,0,1-1.92-4.17c-.9-2.2-1.59-3.81-1.44-6.21,0-.28.16-.18.51-.07a136.25,136.25,0,0,0,21.09-.1c7.54-.45,15.56-1.07,23,.12a13.75,13.75,0,0,1,11.06,9.72,15.89,15.89,0,0,1,.62,4.24,13.13,13.13,0,0,1,0,6,6,6,0,0,1-.12.61A19.24,19.24,0,0,1,427,33.53c-.28.42-.55.82-.76,1.16A20.91,20.91,0,0,1,422.3,39a23.62,23.62,0,0,1-6.42,4.15,3.9,3.9,0,0,1-1,.58s0,.05,0,.07a18.64,18.64,0,0,0-1.85.91,1.64,1.64,0,0,1,0,.22c.34,1.38.53,2.83.93,4.07.87,2.69,1.42,4.27,2.19,7s2.17,4.49,3.14,7.1a28.73,28.73,0,0,0,1.39,3.17,39.21,39.21,0,0,1,1.68,3.69,29.07,29.07,0,0,0,1.51,3.25c.76,1.44,1.53,2.88,2.2,4.37,1.13,2.48,6.89,15.29,8.29,17.63s2.27,4.75,4.07,6.63c2.47,2.6,5.14,4.46,8.87,4.53,2.88,0,5.77-3.28,7-5.78,1-2.11,1.8-3.45,4.31-3.71a35.83,35.83,0,0,1,5.86,0c1.68.11,4.18-.18,5.75.34a1.73,1.73,0,0,1,1.06.91C471.84,99.19,471.52,100.89,471.21,102.05Zm-57.7-73.44A4.89,4.89,0,0,0,413.3,22c-1.79-1.69-4.54-1.8-6.88-1.91-3.24-.15-6.47,0-9.71-.05l0,2.43c0,2.56-.16,4.47-.05,7.06.09,2.14-.14,4.79,0,6.87,1-.29,2.08-.49,3-.72l.49-.17a24,24,0,0,1,2.72-1.07c.86-.46,1.77-.81,2.63-1.25C408.12,31.85,411.49,30.74,413.51,28.61Z" transform="translate(-4.56 -5.84)"/><path class="cls-1" d="M497.14,10.48a1.38,1.38,0,0,1-.67.68c-.28.12-1.17.33-1.31.59a4.17,4.17,0,0,0-.41,1c0,.56.07,1.11.1,1.66.06,1,0,1.9,0,2.86a14.85,14.85,0,0,1,0,2.31c-.16.9-.44,1.78-.63,2.68s-.44,1.91-.68,2.86a24.45,24.45,0,0,1-1.35,3.91,14.57,14.57,0,0,0-.65,2.06,18.32,18.32,0,0,1-.6,2,25.08,25.08,0,0,1-3.9,7.21,16.33,16.33,0,0,1-2.26,2.11,16.37,16.37,0,0,1-6.15,5.6c-.57.3-1.13.63-1.69,1-.73.43-1.49.86-2.28,1.24-.07,5,.33,9.94.32,14.94,0,3.68-.23,7.35-.22,11,0,1.5.11,3,0,4.51,0,.59-.07,1.2-.11,1.8a4.48,4.48,0,0,0,.44,1.12c.15.28,1.1.51,1.4.63a1.54,1.54,0,0,1,.72.75,4.23,4.23,0,0,1,.07,2.7c-.42,1-1.8,1-2.7,1a.71.71,0,0,1-.39-.11c-.76,0-1.51,0-2.25,0a57.82,57.82,0,0,1-8.53-.08c-.6-.07-1.21-.25-1.82-.27s-1.26.17-1.89.16-1.2-.24-1.82-.23-1.48.15-2.23.15c-1,0-2-.24-1.94-1.45.06-.72,0-2,.85-2.35a1.27,1.27,0,0,1,.18-.06c.39-.62,1.11-.89,1.57-1.45,1.22-1.49.94-3.38.94-5.11,0-2.5,0-5,0-7.51q0-7.55,0-15.09c0-1.94,0-3.87,0-5.8l-.94-.54c-.56-.33-1.11-.66-1.68-1a16.56,16.56,0,0,1-6.16-5.6,16.91,16.91,0,0,1-2.25-2.11,25.22,25.22,0,0,1-3.9-7.21,17.47,17.47,0,0,1-.6-2,13.79,13.79,0,0,0-.65-2.06,25.14,25.14,0,0,1-1.35-3.91,34.74,34.74,0,0,1-1.32-10.72c0-.54.07-1.1.1-1.66a3.9,3.9,0,0,0-.4-1c-.15-.26-1-.47-1.31-.58a1.45,1.45,0,0,1-.67-.69A3.8,3.8,0,0,1,436,8c.39-.93,1.68-.89,2.52-.9a.66.66,0,0,1,.37.09l2.1,0a54.21,54.21,0,0,1,8,.07c.57.07,1.13.23,1.71.25s1.17-.16,1.77-.15,1.12.23,1.69.22,1.39-.14,2.09-.14c.93,0,1.9.22,1.81,1.34-.06.65-.05,1.85-.79,2.16a1.09,1.09,0,0,1-.17.05c-.36.58-1,.83-1.46,1.34-1.14,1.38-.89,3.12-.89,4.71,0,1.07.32,2.07.42,3.14a13.06,13.06,0,0,0,.52,3.46c.64,1.71,1.83,4.89,3.3,6.47l.19.2c2,2.16,4.32,4.28,7.43,4.1a11.42,11.42,0,0,0,2-.15,6.58,6.58,0,0,0,2-1,17.83,17.83,0,0,0,3.42-2.95l.19-.2c1.47-1.58,2.66-4.76,3.3-6.47.1-.27.18-.53.28-.79,0-.06,0-.11,0-.18a45,45,0,0,0,.78-7.2,5.14,5.14,0,0,0-1-3.14c-.42-.51-1.1-.76-1.47-1.33l-.16-.05c-.75-.31-.74-1.51-.79-2.17-.1-1.12.87-1.35,1.8-1.34.7,0,1.39.13,2.09.14s1.12-.2,1.7-.21,1.17.16,1.77.14a16.59,16.59,0,0,0,1.7-.25,55.65,55.65,0,0,1,8-.07l2.1,0a.88.88,0,0,1,.37-.09c.84,0,2.14,0,2.52.91A3.83,3.83,0,0,1,497.14,10.48Z" transform="translate(-4.56 -5.84)"/></svg>